<?xml version="1.0" standalone="no"?>
<!DOCTYPE svg PUBLIC "-//W3C//DTD SVG 20010904//EN"
 "http://www.w3.org/TR/2001/REC-SVG-20010904/DTD/svg10.dtd">
<svg version="1.0" xmlns="http://www.w3.org/2000/svg"
 width="900.000000pt" height="507.000000pt" viewBox="0 0 900.000000 507.000000"
 preserveAspectRatio="xMidYMid meet">
<metadata>
Created by potrace 1.10, written by Peter Selinger 2001-2011
</metadata>
<g transform="translate(0.000000,507.000000) scale(0.100000,-0.100000)"
fill="#ff0000" stroke="none">
<path d="M4110 4750 c-96 -4 -188 -10 -205 -14 -16 -3 -82 -11 -145 -17 -179
-15 -397 -46 -512 -70 -26 -6 -71 -15 -100 -19 -70 -12 -181 -34 -243 -50
-120 -30 -231 -60 -319 -86 -26 -7 -57 -14 -67 -14 -10 0 -20 -4 -24 -9 -3 -5
-20 -12 -38 -16 -34 -7 -57 -14 -202 -65 -89 -31 -151 -54 -190 -71 -11 -4
-60 -24 -110 -45 -136 -56 -323 -143 -390 -183 -16 -10 -61 -34 -99 -55 -169
-93 -394 -244 -541 -365 -73 -60 -296 -293 -351 -366 -99 -133 -163 -239 -202
-335 -13 -30 -27 -64 -32 -75 -84 -195 -104 -507 -47 -740 15 -61 32 -114 47
-150 5 -11 19 -45 32 -75 23 -56 132 -245 155 -268 7 -7 13 -17 13 -21 0 -4
12 -20 28 -37 15 -16 40 -45 54 -64 51 -66 199 -212 313 -310 85 -72 286 -213
445 -312 147 -91 502 -260 700 -334 36 -13 74 -28 85 -33 11 -6 52 -20 90 -32
39 -12 75 -26 80 -30 6 -3 26 -10 45 -14 19 -4 41 -11 50 -15 8 -4 40 -15 70
-23 30 -9 87 -25 125 -36 82 -24 219 -60 255 -68 14 -2 75 -16 136 -29 180
-39 254 -52 494 -88 79 -12 305 -37 451 -51 212 -20 894 -20 1126 -1 92 8 193
17 223 20 189 16 548 67 710 101 182 38 229 48 274 61 26 8 55 14 64 14 14 0
50 9 172 45 141 40 166 48 180 55 9 4 31 11 50 15 19 4 40 11 45 15 6 4 26 13
45 18 43 13 168 59 195 72 11 5 45 19 75 30 249 95 607 294 805 447 6 5 51 40
100 78 213 165 454 452 552 655 38 80 72 160 83 198 34 114 42 147 60 252 52
305 -5 584 -179 880 -38 64 -123 184 -141 200 -3 3 -24 27 -45 55 -57 71 -210
221 -306 300 -117 97 -498 355 -524 355 -2 0 -28 14 -57 31 -103 61 -284 148
-443 213 -49 21 -99 42 -110 47 -27 12 -234 85 -315 111 -36 11 -83 26 -105
33 -22 7 -67 21 -100 30 -33 9 -73 22 -90 27 -94 31 -517 123 -630 137 -33 5
-83 13 -110 19 -58 13 -187 29 -335 42 -58 5 -135 14 -170 19 -86 14 -728 21
-950 11z m730 -639 c36 -7 69 -16 75 -22 5 -5 18 -9 30 -9 11 0 29 -6 40 -14
11 -7 31 -17 43 -21 50 -15 150 -83 219 -148 140 -133 223 -294 254 -493 10
-70 10 -95 -4 -179 -22 -129 -28 -135 -131 -136 -106 0 -209 -19 -270 -50 -54
-27 -76 -56 -35 -46 13 3 42 12 64 21 54 20 148 20 192 -1 46 -21 73 -67 73
-121 0 -88 -63 -142 -163 -142 -66 0 -118 24 -172 79 -21 23 -42 41 -45 41 -4
0 -16 -8 -28 -17 -11 -10 -53 -40 -91 -68 -39 -27 -71 -53 -71 -57 0 -4 15 -7
33 -6 43 1 57 -7 57 -37 0 -35 -31 -47 -134 -53 l-91 -4 -96 -64 c-53 -35
-101 -64 -107 -64 -12 0 -32 -59 -61 -185 -21 -90 -27 -112 -55 -215 -20 -72
-66 -256 -76 -300 -4 -19 -17 -71 -29 -115 -28 -107 -27 -112 14 -129 47 -20
46 -48 -2 -81 -21 -14 -41 -25 -45 -25 -4 0 -37 -18 -73 -40 -36 -22 -71 -40
-78 -40 -21 0 -37 22 -37 52 0 33 -10 35 -36 7 -37 -41 -112 -70 -179 -71 -54
0 -69 4 -100 27 -75 58 -111 138 -121 274 -15 205 59 409 196 540 57 53 163
101 228 101 41 0 117 -28 138 -51 9 -10 22 -19 29 -19 11 0 30 76 41 166 l6
41 -41 6 c-86 11 -144 83 -144 178 0 59 12 89 55 128 26 25 19 37 -12 21 -40
-21 -75 5 -60 45 7 18 68 56 112 69 13 4 16 12 12 33 -4 24 2 57 37 192 3 9
-8 18 -26 24 -90 29 -122 55 -149 121 -20 48 -20 65 0 126 27 84 100 130 206
130 74 0 67 -7 88 90 7 30 18 76 26 102 16 55 18 98 4 98 -18 0 -11 39 9 49
30 16 141 16 151 1 5 -8 7 -17 4 -21 -2 -4 -11 -38 -19 -75 -9 -38 -22 -94
-30 -124 -8 -30 -19 -75 -25 -99 -13 -55 -9 -66 31 -86 30 -16 32 -16 53 4 42
39 80 16 69 -42 -4 -20 -1 -27 11 -27 8 0 18 10 21 23 11 47 27 114 41 172 8
33 19 80 24 105 6 25 15 57 21 73 9 20 8 31 -1 41 -6 8 -10 25 -8 38 3 21 10
24 68 29 36 4 71 4 78 2 18 -8 15 -52 -14 -160 -14 -54 -32 -123 -39 -153 -7
-30 -27 -109 -45 -175 -17 -66 -37 -145 -44 -175 -8 -30 -24 -93 -36 -138 -15
-59 -20 -98 -16 -130 4 -26 8 -60 10 -77 3 -30 21 -42 41 -27 9 6 62 204 111
417 8 33 21 85 28 115 12 47 29 111 53 207 4 17 0 22 -18 25 -18 2 -25 10 -27
30 -3 23 1 28 25 33 15 4 38 11 51 16 42 17 167 11 227 -12 75 -28 110 -59
129 -118 25 -78 18 -129 -28 -206 -40 -65 -172 -142 -248 -144 -16 -1 -28 -6
-28 -11 0 -18 25 -90 31 -90 3 0 26 11 51 24 69 36 149 56 249 61 50 2 94 7
98 10 3 4 5 66 5 138 -1 108 -5 143 -23 196 -34 97 -61 150 -115 221 -101 134
-223 218 -394 272 -93 30 -327 32 -417 4 -451 -139 -664 -577 -488 -1006 8
-19 21 -48 29 -63 36 -64 -22 -109 -64 -49 -69 100 -112 255 -112 407 0 159
43 305 129 436 195 296 526 435 881 370z m-2646 -1147 c24 -9 19 -42 -10 -61
-35 -22 -42 -42 -119 -353 -7 -30 -18 -73 -24 -95 -17 -64 -14 -71 37 -101 26
-15 90 -55 142 -89 176 -114 192 -120 203 -73 32 135 60 243 81 323 9 33 23
85 30 115 8 30 23 91 35 134 26 99 26 97 -4 142 -39 58 -27 64 130 64 74 0
140 -3 149 -6 25 -10 19 -41 -15 -66 -23 -19 -33 -38 -44 -84 -7 -32 -20 -86
-29 -119 -9 -33 -23 -85 -30 -115 -8 -30 -35 -136 -61 -235 -61 -237 -59 -225
-47 -225 6 0 23 5 38 10 37 14 64 4 64 -25 0 -16 -24 -46 -82 -100 -74 -68
-84 -82 -95 -128 -14 -65 -34 -143 -67 -272 -31 -122 -32 -139 -5 -164 27 -25
19 -66 -13 -75 -37 -9 -224 -7 -252 4 -36 13 -34 50 3 77 15 12 31 32 34 45 3
13 12 50 21 83 8 33 29 114 46 180 50 188 50 179 -5 212 -26 15 -107 67 -180
116 -73 48 -138 87 -143 87 -16 0 -20 -11 -36 -81 -14 -60 -20 -85 -61 -237
-21 -75 -40 -153 -58 -228 -7 -33 -17 -66 -20 -72 -4 -5 -8 -29 -9 -51 -1 -30
5 -47 21 -65 30 -32 15 -62 -35 -72 -57 -11 -245 2 -255 18 -15 23 -10 46 11
53 29 9 50 45 65 112 21 95 54 225 71 279 21 66 16 85 -24 98 -46 16 -100 70
-124 124 -37 84 -11 203 58 263 37 33 136 80 180 86 53 7 65 21 81 87 6 28 18
80 27 116 9 36 21 83 26 105 4 22 13 53 19 68 18 46 13 105 -11 137 -17 24
-19 32 -8 45 10 12 38 15 145 15 74 0 140 -3 149 -6z m1596 -289 c10 -12 10
-24 2 -53 -16 -51 -31 -107 -47 -172 -7 -30 -21 -82 -30 -115 -9 -33 -22 -85
-30 -115 -7 -30 -21 -82 -30 -115 -9 -33 -21 -80 -26 -105 -6 -25 -13 -52 -16
-60 -4 -8 -12 -40 -19 -70 -16 -70 -38 -159 -59 -235 -34 -127 -37 -157 -14
-188 11 -15 19 -38 17 -50 -4 -26 -47 -35 -175 -36 -95 -1 -133 10 -133 39 0
25 2 25 -54 -6 -58 -33 -109 -34 -142 -3 -13 12 -24 28 -24 35 0 24 -18 24
-47 0 -47 -39 -110 -66 -171 -72 -76 -8 -122 7 -164 54 -91 101 -64 267 61
377 37 32 132 92 168 106 59 22 218 105 243 126 54 45 49 139 -9 163 -49 20
-90 3 -128 -53 -65 -96 -69 -100 -127 -105 -46 -4 -57 -1 -76 18 -53 53 19
168 140 222 19 8 68 21 109 28 66 12 82 12 140 -3 79 -21 128 -57 159 -117 33
-66 28 -138 -23 -315 -7 -27 -19 -70 -25 -95 -6 -25 -18 -70 -26 -100 -31
-114 -33 -125 -23 -135 5 -5 17 -10 27 -10 21 0 28 -40 12 -61 -14 -15 -10
-17 14 -8 15 6 36 66 67 189 6 22 16 63 24 90 15 53 61 236 75 295 21 94 78
307 106 402 20 68 18 120 -6 141 -49 42 0 74 163 107 21 4 41 10 44 14 11 11
40 6 53 -9z m3348 -89 c64 -35 79 -123 38 -213 -32 -69 -103 -145 -130 -141
-22 3 -24 13 -10 81 6 34 3 42 -24 70 -60 62 -56 140 10 187 44 32 79 37 116
16z m-2379 -25 c87 -61 -3 -232 -121 -231 -54 1 -98 48 -98 108 0 28 39 92 73
120 40 33 102 34 146 3z m-15 -267 c27 -10 22 -45 -40 -274 -8 -30 -19 -73
-24 -95 -5 -22 -19 -76 -30 -120 -12 -44 -28 -105 -36 -135 -8 -30 -22 -86
-31 -124 -14 -66 -14 -69 6 -97 29 -39 27 -67 -5 -79 -28 -11 -215 -12 -254
-1 -38 10 -38 47 -1 80 29 25 39 49 66 161 7 30 27 109 45 175 38 145 57 223
72 293 l12 54 -32 25 c-18 13 -32 30 -32 37 0 21 32 44 75 55 22 5 69 18 105
29 76 23 83 24 104 16z m314 -6 c7 -7 12 -32 12 -57 l0 -45 43 41 c44 43 103
73 144 73 57 0 113 -51 113 -103 l0 -29 35 31 c123 107 330 129 439 46 59 -45
86 -97 86 -169 0 -33 -4 -73 -10 -90 -10 -34 -56 -215 -72 -286 -6 -25 -14
-49 -18 -55 -5 -5 -11 -36 -15 -67 l-7 -56 28 -4 c44 -5 43 -37 -3 -81 -48
-47 -89 -69 -129 -69 -35 0 -84 27 -84 47 0 7 -7 18 -15 25 -13 11 -20 9 -43
-12 -72 -66 -184 -95 -264 -69 -68 23 -118 105 -118 195 0 87 25 143 96 213
53 52 88 74 217 137 84 42 158 76 163 76 14 1 60 43 73 67 16 31 14 85 -4 110
-19 27 -68 38 -105 23 -17 -7 -45 -37 -70 -76 -48 -74 -62 -84 -124 -84 -53 0
-76 19 -76 61 l0 30 -32 -25 c-18 -13 -49 -27 -69 -31 -33 -6 -41 -3 -76 29
-33 30 -43 33 -56 23 -20 -15 -65 -114 -83 -184 -8 -29 -21 -79 -30 -110 -8
-32 -20 -78 -25 -103 -5 -25 -13 -54 -18 -65 -4 -11 -16 -53 -26 -93 -18 -79
-20 -71 29 -138 21 -27 -11 -41 -112 -46 -183 -10 -235 12 -172 74 23 23 38
50 47 88 28 114 42 167 57 225 9 33 23 85 31 115 7 30 21 84 30 120 9 36 19
84 22 106 4 38 2 43 -26 60 -17 10 -33 24 -35 30 -9 24 29 52 99 74 39 12 79
26 90 30 29 12 49 12 63 -2z m1206 -4 c3 -9 6 -34 6 -56 l0 -40 46 40 c46 41
117 72 164 72 35 0 109 -49 117 -77 6 -28 34 -30 57 -4 9 10 47 33 83 51 51
26 74 31 104 27 57 -7 104 -47 123 -104 21 -60 20 -74 -5 -169 -11 -44 -26
-104 -34 -134 -7 -30 -20 -82 -29 -115 -26 -93 -45 -174 -58 -242 -11 -59 -11
-64 11 -93 26 -35 21 -65 -12 -74 -28 -7 -225 -8 -254 0 -35 10 -37 45 -3 74
30 26 53 81 65 160 4 24 11 51 16 60 8 16 54 193 71 275 5 27 14 57 19 67 17
31 14 96 -6 118 -41 45 -113 2 -135 -81 -26 -96 -40 -148 -65 -249 -86 -343
-80 -308 -56 -341 26 -35 27 -65 2 -79 -25 -13 -231 -13 -265 0 -35 13 -36 57
-3 69 34 13 37 21 122 361 7 30 21 84 30 120 36 142 38 160 27 185 -16 35 -54
41 -95 16 -28 -17 -35 -30 -44 -73 -6 -29 -19 -80 -28 -113 -21 -77 -44 -169
-55 -223 -5 -24 -12 -47 -15 -52 -3 -4 -11 -39 -19 -77 -8 -37 -17 -77 -21
-88 -4 -15 2 -29 19 -48 14 -16 26 -34 26 -41 0 -30 -25 -36 -162 -36 -131 0
-138 1 -149 22 -10 19 -8 25 21 50 30 24 37 41 66 155 18 70 51 200 75 288 23
88 44 180 47 203 4 40 1 46 -28 71 -27 22 -32 32 -27 53 5 20 15 27 43 33 20
3 44 10 53 15 25 14 103 37 127 39 12 0 25 -6 28 -15z m1164 0 c78 -22 162
-64 179 -91 13 -20 13 -30 -7 -95 -26 -85 -35 -98 -64 -98 -32 0 -46 19 -46
63 0 64 -30 101 -93 117 -97 23 -166 -16 -167 -95 0 -36 6 -46 53 -91 28 -28
70 -63 92 -79 69 -51 136 -118 158 -160 31 -57 31 -183 0 -240 -27 -51 -86
-107 -143 -136 -62 -32 -193 -32 -262 -1 -26 12 -51 22 -57 22 -5 0 -25 15
-44 33 l-34 32 8 64 c15 104 32 145 64 149 34 4 44 -11 45 -63 1 -51 38 -126
70 -143 16 -8 43 -11 75 -8 41 4 56 12 84 42 31 34 33 40 29 90 -6 65 -13 74
-139 170 -53 40 -110 90 -127 111 -107 135 -33 348 141 405 66 21 115 22 185
2z"/>
<path d="M5035 3578 c-3 -13 -14 -59 -26 -103 -44 -173 -48 -190 -49 -197 0
-17 77 -6 115 15 103 58 128 191 50 273 -8 8 -69 34 -81 34 -2 0 -6 -10 -9
-22z"/>
<path d="M4153 3410 c-39 -23 -53 -48 -53 -94 0 -42 31 -79 77 -94 26 -8 34
-7 46 6 14 17 33 89 44 165 l5 37 -43 0 c-26 0 -57 -8 -76 -20z"/>
<path d="M4395 3343 c-9 -21 -15 -46 -13 -56 3 -16 9 -13 41 19 40 40 46 58
21 68 -27 11 -33 7 -49 -31z"/>
<path d="M4477 3248 c-33 -32 -64 -58 -70 -58 -35 -1 -61 -40 -83 -124 -27
-106 -40 -126 -90 -142 -37 -11 -34 -12 57 -13 93 -1 122 -7 258 -51 78 -25
92 -14 34 25 -73 49 -78 57 -64 107 7 24 17 63 22 87 5 25 13 59 18 75 31 102
33 117 15 137 -9 10 -22 18 -28 17 -6 -1 -37 -28 -69 -60z"/>
<path d="M4901 3043 c-6 -16 -15 -48 -21 -73 -5 -25 -12 -58 -16 -74 l-7 -29
39 23 c40 25 64 45 64 54 0 2 -10 6 -22 8 -26 3 -37 43 -19 61 13 13 15 57 2
57 -5 0 -14 -12 -20 -27z"/>
<path d="M5140 2933 c-19 -8 -37 -17 -39 -19 -9 -8 45 -57 78 -71 86 -37 169
29 111 87 -24 24 -97 26 -150 3z"/>
<path d="M4230 2820 c0 -6 31 -10 74 -10 41 0 78 5 81 10 4 6 -23 10 -74 10
-47 0 -81 -4 -81 -10z"/>
<path d="M4140 2790 c0 -12 8 -12 35 0 18 8 17 9 -7 9 -16 1 -28 -3 -28 -9z"/>
<path d="M4448 2793 c12 -2 30 -2 40 0 9 3 -1 5 -23 4 -22 0 -30 -2 -17 -4z"/>
<path d="M4530 2772 c0 -10 60 -25 68 -17 8 8 0 12 -35 20 -19 4 -33 3 -33 -3z"/>
<path d="M4635 2740 c-4 -6 7 -10 25 -10 18 0 29 4 25 10 -3 6 -15 10 -25 10
-10 0 -22 -4 -25 -10z"/>
<path d="M4215 2718 c-54 -19 -75 -46 -75 -97 0 -61 37 -101 92 -101 45 0 46
5 12 41 -22 23 -24 29 -13 48 8 11 27 23 44 26 16 4 48 12 70 20 22 7 59 18
83 24 23 7 42 15 42 20 0 11 -118 31 -176 30 -27 0 -62 -5 -79 -11z"/>
<path d="M4497 2681 c-2 -3 0 -23 3 -44 l5 -39 24 21 c13 12 28 21 33 21 5 0
8 8 6 17 -3 17 -65 38 -71 24z"/>
<path d="M4028 2146 c-20 -6 -53 -27 -73 -46 -41 -39 -107 -168 -125 -245 -22
-86 -24 -199 -5 -255 22 -66 37 -80 90 -80 37 0 47 5 74 35 61 70 109 203 146
406 19 102 16 134 -12 167 -24 27 -50 32 -95 18z"/>
<path d="M1674 2263 c-42 -8 -60 -45 -56 -109 2 -15 13 -24 41 -32 60 -19 82
-5 98 59 22 86 22 84 -22 85 -22 1 -50 0 -61 -3z"/>
<path d="M2991 1828 c-145 -75 -201 -142 -201 -235 0 -63 21 -93 64 -93 69 0
167 106 195 210 38 142 41 163 22 159 -3 -1 -39 -19 -80 -41z"/>
<path d="M5635 1851 c-196 -107 -238 -153 -239 -257 -1 -69 15 -94 61 -94 44
1 90 31 131 86 42 56 52 78 75 169 34 127 33 129 -28 96z"/>
</g>
</svg>
